<svg xmlns="http://www.w3.org/2000/svg" width="22" height="22" stroke="hsl(216, 100%, 60%)" stroke-width="2" viewBox="0 0 64 80" fill="none"  x="0px" y="0px"><path d="M19.3196 20.5632C18.2506 12.8665 24.2294 6 32 6C39.7706 6 45.7493 12.8665 44.6803 20.5632L43.6698 27.839C43.5972 28.3618 43.491 28.8727 43.3536 29.3696C44.5311 29.1273 45.7507 29 47 29C47.1785 29 47.3563 29.0026 47.5335 29.0078C47.5702 28.803 47.603 28.5968 47.6318 28.3892L48.6423 21.1135C50.0453 11.0119 42.1986 2 32 2C21.8014 2 13.9547 11.0119 15.3577 21.1135L16.3682 28.3892C16.9643 32.681 19.2518 36.3691 22.4968 38.8181L21.7542 42.5312L9.71313 47.1922C7.64237 47.9938 5.99793 49.62 5.17326 51.6817L2.14304 59.2572C1.89657 59.8734 1.9718 60.5717 2.34386 61.1213C2.71592 61.6708 3.33635 62 3.99999 62L37.0466 62C35.4055 60.9089 33.9538 59.5556 32.7511 58L6.95406 58L8.88717 53.1672C9.2995 52.1364 10.1217 51.3233 11.1571 50.9225L23.71 46.0633C24.6666 45.693 25.3677 44.8597 25.5688 43.8539L26.6774 38.311C26.8407 37.4944 26.4809 36.662 25.7741 36.2215C22.8903 34.4241 20.8263 31.4112 20.3302 27.839L19.3196 20.5632Z" fill="hsl(216, 100%, 60%)"/><path d="M47 39C48.1046 39 49 39.8954 49 41V45H53C54.1046 45 55 45.8954 55 47C55 48.1046 54.1046 49 53 49H49V53C49 54.1046 48.1046 55 47 55C45.8954 55 45 54.1046 45 53V49H41C39.8954 49 39 48.1046 39 47C39 45.8954 39.8954 45 41 45H45V41C45 39.8954 45.8954 39 47 39Z" fill="hsl(216, 100%, 60%)"/><path fill-rule="evenodd" clip-rule="evenodd" d="M47 32C55.2843 32 62 38.7157 62 47C62 55.2843 55.2843 62 47 62C38.7157 62 32 55.2843 32 47C32 38.7157 38.7157 32 47 32ZM58 47C58 40.9249 53.0751 36 47 36C40.9249 36 36 40.9249 36 47C36 53.0751 40.9249 58 47 58C53.0751 58 58 53.0751 58 47Z" fill="hsl(216, 100%, 60%)"/></svg>